<mxfile host="app.diagrams.net" modified="2021-10-24T12:06:29.394Z" agent="5.0 (Windows NT 10.0; Win64; x64) AppleWebKit/537.36 (KHTML, like Gecko) Chrome/95.0.4638.54 Safari/537.36 Edg/95.0.1020.30" etag="0zx_O-yrt_MHSuNRTCA1" version="14.7.2" type="github">
  <diagram id="HJL4gtccgw9ECOeoA37o" name="Page-1">
    <mxGraphModel dx="1806" dy="955" grid="1" gridSize="10" guides="1" tooltips="1" connect="1" arrows="1" fold="1" page="1" pageScale="1" pageWidth="827" pageHeight="1169" math="0" shadow="0">
      <root>
        <mxCell id="0" />
        <mxCell id="1" parent="0" />
        <mxCell id="zwlfHStFDQA1q4JiYd55-5" value="" style="rounded=0;whiteSpace=wrap;html=1;" parent="1" vertex="1">
          <mxGeometry x="240" y="420" width="300" height="150" as="geometry" />
        </mxCell>
        <mxCell id="zwlfHStFDQA1q4JiYd55-6" value="" style="endArrow=classic;html=1;" parent="1" edge="1">
          <mxGeometry width="50" height="50" relative="1" as="geometry">
            <mxPoint x="390" y="240" as="sourcePoint" />
            <mxPoint x="389.5" y="420" as="targetPoint" />
          </mxGeometry>
        </mxCell>
        <mxCell id="zwlfHStFDQA1q4JiYd55-7" value="" style="endArrow=classic;html=1;" parent="1" edge="1">
          <mxGeometry width="50" height="50" relative="1" as="geometry">
            <mxPoint x="40" y="494.5" as="sourcePoint" />
            <mxPoint x="240" y="494.5" as="targetPoint" />
          </mxGeometry>
        </mxCell>
        <mxCell id="zwlfHStFDQA1q4JiYd55-8" value="" style="endArrow=classic;html=1;" parent="1" edge="1">
          <mxGeometry width="50" height="50" relative="1" as="geometry">
            <mxPoint x="540" y="494.5" as="sourcePoint" />
            <mxPoint x="740" y="494.5" as="targetPoint" />
          </mxGeometry>
        </mxCell>
        <mxCell id="zwlfHStFDQA1q4JiYd55-9" value="" style="endArrow=classic;html=1;" parent="1" edge="1">
          <mxGeometry width="50" height="50" relative="1" as="geometry">
            <mxPoint x="390" y="570" as="sourcePoint" />
            <mxPoint x="390" y="730" as="targetPoint" />
          </mxGeometry>
        </mxCell>
      </root>
    </mxGraphModel>
  </diagram>
</mxfile>
